<svg aria-hidden="true" style="position: absolute; width: 0; height: 0; overflow: hidden;" version="1.1" xmlns="http://www.w3.org/2000/svg" xmlns:xlink="http://www.w3.org/1999/xlink">
<defs>
<symbol id="icon-appn-ame" viewBox="0 0 25 32">
<path fill="#fff" style="fill: var(--color1, #fff)" d="M23.838 8.485c0.202 0.202 0.316 0.475 0.316 0.761v20.754c0 0.596-0.481 1.077-1.077 1.077h-21.538c-0.596 0-1.077-0.481-1.077-1.077v-28c0-0.596 0.481-1.077 1.077-1.077h14.293c0.286 0 0.562 0.114 0.764 0.316l7.242 7.246zM21.67 9.74l-6.334-6.334v6.334h6.334zM5.846 14.99c-0.071 0-0.14 0.028-0.19 0.079s-0.079 0.119-0.079 0.19v1.615c0 0.072 0.028 0.14 0.079 0.19s0.119 0.079 0.19 0.079h12.923c0.071 0 0.14-0.028 0.19-0.079s0.079-0.119 0.079-0.19v-1.615c0-0.071-0.028-0.14-0.079-0.19s-0.119-0.079-0.19-0.079h-12.923zM5.846 19.567c-0.071 0-0.14 0.028-0.19 0.079s-0.079 0.119-0.079 0.19v1.615c0 0.071 0.028 0.14 0.079 0.19s0.119 0.079 0.19 0.079h6.192c0.071 0 0.14-0.028 0.19-0.079s0.079-0.119 0.079-0.19v-1.615c0-0.071-0.028-0.14-0.079-0.19s-0.119-0.079-0.19-0.079h-6.192z"></path>
</symbol>
<symbol id="icon-clouse" viewBox="0 0 32 32">
<path fill="#fff" style="fill: var(--color1, #fff)" d="M28.614 1.13l-12.614 12.614-12.614-12.614c-0.303-0.278-0.702-0.427-1.113-0.418s-0.803 0.176-1.094 0.467c-0.291 0.291-0.458 0.683-0.467 1.094s0.141 0.81 0.418 1.113l12.608 12.614-12.611 12.611c-0.154 0.147-0.277 0.323-0.362 0.518s-0.13 0.405-0.133 0.618 0.037 0.424 0.117 0.621c0.080 0.197 0.199 0.376 0.349 0.527s0.329 0.27 0.526 0.35 0.408 0.121 0.621 0.118c0.213-0.002 0.423-0.047 0.618-0.132s0.372-0.208 0.519-0.361l12.618-12.611 12.614 12.614c0.303 0.278 0.702 0.428 1.113 0.418s0.803-0.176 1.094-0.467c0.291-0.291 0.458-0.683 0.467-1.094s-0.141-0.81-0.418-1.113l-12.614-12.614 12.614-12.618c0.154-0.147 0.277-0.323 0.362-0.518s0.13-0.405 0.133-0.618c0.003-0.213-0.037-0.424-0.117-0.621s-0.199-0.376-0.349-0.527c-0.15-0.151-0.329-0.27-0.526-0.35s-0.408-0.121-0.621-0.118-0.423 0.047-0.618 0.132c-0.195 0.085-0.372 0.208-0.519 0.362v0.003z"></path>
</symbol>
<symbol id="icon-burger" viewBox="0 0 52 32">
<path fill="none" stroke="#fff" style="stroke: var(--color1, #fff)" stroke-linejoin="miter" stroke-linecap="round" stroke-miterlimit="4" stroke-width="4" d="M2 2h48"></path>
<path fill="none" stroke="#fff" style="stroke: var(--color1, #fff)" stroke-linejoin="miter" stroke-linecap="round" stroke-miterlimit="4" stroke-width="4" d="M2 16h48"></path>
<path fill="none" stroke="#fff" style="stroke: var(--color1, #fff)" stroke-linejoin="miter" stroke-linecap="round" stroke-miterlimit="4" stroke-width="4" d="M2 30h48"></path>
</symbol>
</defs>
</svg>
